<?xml version="1.0" standalone="no"?>
<!DOCTYPE svg PUBLIC "-//W3C//DTD SVG 20010904//EN"
 "http://www.w3.org/TR/2001/REC-SVG-20010904/DTD/svg10.dtd">
<svg version="1.0" xmlns="http://www.w3.org/2000/svg"
 width="512.000000pt" height="512.000000pt" viewBox="0 0 512.000000 512.000000"
 preserveAspectRatio="xMidYMid meet">
<metadata>
Created by potrace 1.14, written by Peter Selinger 2001-2017
</metadata>
<g transform="translate(0.000000,512.000000) scale(0.100000,-0.100000)"
fill="#000000" stroke="none">
<path d="M5007 5114 c-1 -1 -29 -5 -62 -8 -33 -4 -71 -9 -85 -11 -14 -2 -45
-7 -70 -11 -25 -3 -65 -10 -90 -15 -25 -6 -60 -12 -79 -15 -19 -3 -77 -16
-130 -30 -53 -14 -103 -28 -111 -30 -8 -2 -38 -10 -67 -18 -28 -7 -54 -11 -57
-8 -3 3 -6 1 -6 -5 0 -5 -6 -10 -12 -11 -26 -1 -220 -64 -283 -91 -11 -5 -69
-28 -130 -52 -60 -23 -138 -55 -173 -71 -34 -15 -64 -28 -67 -28 -2 0 -75 -35
-162 -77 -87 -42 -161 -76 -165 -75 -5 1 -8 -2 -8 -7 0 -5 -18 -16 -40 -25
-22 -9 -40 -21 -40 -27 0 -5 -4 -8 -9 -5 -5 3 -24 -5 -42 -17 -19 -13 -41 -26
-49 -30 -8 -4 -33 -18 -55 -30 -22 -13 -56 -32 -75 -42 -19 -11 -39 -23 -45
-28 -38 -28 -85 -55 -85 -49 0 4 -5 -1 -11 -10 -5 -10 -15 -18 -21 -18 -6 0
-26 -11 -44 -25 -18 -14 -35 -25 -39 -25 -8 0 -69 -44 -73 -53 -2 -4 -7 -5
-12 -2 -4 2 -15 -4 -25 -15 -10 -11 -24 -20 -32 -20 -7 0 -13 -4 -13 -8 0 -4
-20 -21 -45 -36 -25 -16 -45 -33 -45 -37 0 -5 -5 -9 -10 -9 -9 0 -66 -38 -100
-68 -8 -6 -55 -42 -105 -79 -49 -37 -92 -70 -95 -73 -3 -3 -27 -23 -54 -45
-27 -21 -61 -50 -75 -63 -45 -42 -70 -54 -109 -54 -20 0 -39 1 -42 2 -7 2
-194 12 -257 13 -29 1 -53 4 -53 7 0 3 -35 6 -78 7 -42 1 -103 3 -134 6 -62 4
-52 10 -165 -93 -24 -21 -43 -36 -43 -33 0 3 -10 -5 -23 -18 -12 -13 -51 -49
-86 -79 -36 -30 -72 -62 -81 -70 -8 -8 -49 -44 -90 -79 -41 -35 -77 -68 -78
-72 -2 -5 -10 -9 -18 -9 -9 0 -12 -4 -9 -10 3 -5 2 -10 -2 -10 -5 0 -29 -18
-53 -40 -78 -70 -90 -80 -101 -80 -5 0 -7 -4 -4 -10 3 -5 2 -10 -4 -10 -5 0
-31 -20 -58 -44 -26 -24 -86 -77 -133 -118 -122 -105 -148 -128 -198 -174
l-45 -41 31 -5 c18 -2 32 -1 32 4 0 5 5 6 11 3 5 -4 20 -8 32 -10 86 -12 123
-18 152 -28 11 -3 38 -9 60 -12 42 -7 50 -9 75 -17 8 -3 62 -20 120 -39 111
-35 299 -111 337 -136 13 -9 23 -12 23 -8 0 5 8 1 18 -7 9 -9 27 -19 39 -22
13 -4 29 -13 36 -19 7 -7 30 -21 52 -32 22 -11 42 -22 45 -25 3 -3 18 -14 33
-24 23 -14 28 -23 23 -42 -4 -13 -9 -77 -12 -142 -3 -64 -8 -119 -10 -121 -5
-5 -25 -9 -61 -13 -13 -1 -23 -6 -23 -11 0 -4 -4 -6 -9 -3 -5 3 -33 -3 -62
-13 -30 -10 -58 -19 -64 -21 -5 -1 -21 -7 -35 -12 -14 -5 -32 -11 -40 -13 -36
-8 -176 -73 -240 -113 -79 -48 -164 -126 -216 -197 -16 -22 -31 -42 -34 -45
-15 -15 -78 -139 -122 -240 -33 -77 -97 -291 -100 -337 -1 -7 -4 -13 -8 -13
-4 0 -6 -11 -5 -25 2 -14 0 -25 -4 -25 -4 0 -7 -10 -8 -22 -1 -13 -3 -34 -6
-48 -3 -14 -9 -47 -13 -75 -4 -27 -9 -57 -10 -65 -2 -8 -6 -40 -10 -70 -8 -69
-12 -98 -17 -132 -3 -16 0 -28 7 -28 8 0 8 -3 0 -8 -11 -8 -16 -50 -18 -159 0
-40 -4 -73 -8 -73 -4 0 -3 -11 2 -24 5 -13 6 -27 3 -30 -12 -12 -10 -55 2 -60
14 -5 219 1 290 9 88 10 161 18 180 20 17 1 114 14 150 19 6 1 16 6 24 10 10
7 12 6 6 -4 -6 -10 -4 -11 6 -4 8 4 19 9 24 10 6 1 26 5 45 8 19 4 46 9 60 11
14 1 25 4 25 5 0 1 7 3 15 5 8 1 42 8 75 16 33 7 62 13 65 14 3 0 15 6 26 13
12 6 31 9 43 7 12 -2 19 0 16 6 -4 5 3 9 14 9 10 0 41 9 68 21 26 11 56 21 66
22 9 1 17 5 17 9 0 4 4 8 10 8 22 0 130 56 206 106 45 29 106 80 136 113 57
61 148 190 148 210 0 6 5 11 12 11 6 0 9 3 5 6 -3 3 5 26 19 50 13 24 24 45
24 46 -1 2 4 17 11 33 7 17 13 32 14 35 1 3 5 13 9 22 4 9 9 25 11 35 2 10 4
19 5 21 2 1 3 5 5 10 1 4 4 14 8 22 17 44 28 91 23 99 -4 5 -2 11 4 13 5 1 11
13 13 25 2 12 6 25 9 28 3 4 53 8 111 10 57 2 118 7 134 9 23 5 34 0 51 -19
12 -14 19 -25 16 -25 -4 0 -1 -7 6 -15 36 -43 159 -298 208 -430 16 -44 33
-89 37 -100 4 -11 9 -24 10 -30 2 -5 10 -37 19 -70 9 -33 18 -67 20 -75 2 -8
9 -33 15 -55 5 -22 13 -58 15 -80 3 -22 8 -51 11 -65 3 -14 8 -52 11 -85 3
-33 7 -61 8 -63 2 -1 32 30 67 70 35 40 69 78 74 84 6 6 35 39 65 74 30 34 63
72 73 84 11 12 40 45 65 75 26 29 56 63 67 76 11 12 40 46 65 74 25 29 57 65
73 81 15 16 27 34 27 40 0 6 5 8 10 5 6 -3 10 -3 10 2 0 4 16 26 36 48 19 22
45 52 57 66 46 55 123 143 154 175 18 19 31 34 29 34 -3 0 14 20 37 44 80 84
85 93 82 149 -2 29 -5 76 -6 105 -1 29 -6 55 -11 58 -5 3 -6 10 -2 15 8 14 12
59 5 59 -3 0 -7 33 -8 73 -1 39 -5 115 -8 167 -9 137 -9 140 30 178 19 20 35
39 35 43 0 5 11 19 25 33 14 14 25 29 25 35 0 5 4 11 8 13 14 5 190 237 292
383 52 75 101 142 108 150 6 7 12 17 12 21 0 4 11 22 25 40 14 18 25 37 25 42
0 6 3 12 8 14 8 3 102 155 102 165 0 3 8 12 18 20 9 8 11 11 3 7 -8 -4 -3 8
12 28 15 19 27 40 27 46 0 6 3 12 8 14 13 6 302 571 302 591 0 7 45 112 59
137 5 9 12 30 16 48 3 18 10 30 14 28 4 -3 8 6 9 18 1 13 11 45 23 72 22 50
37 94 44 128 3 11 8 22 13 25 4 3 7 15 7 26 0 11 4 26 9 34 6 7 11 18 12 25 9
41 14 57 24 75 6 12 8 21 6 21 -3 0 -1 12 5 28 6 15 12 34 14 42 2 8 9 35 16
60 13 49 14 52 23 90 3 14 7 35 10 48 9 35 16 65 21 92 3 14 7 36 10 50 24
113 39 228 50 368 l6 72 -56 -2 c-31 -2 -57 -3 -58 -4z"/>
</g>
</svg>
